<svg id="visual" viewBox="0 0 1920 1080" width="1920" height="1080" xmlns="http://www.w3.org/2000/svg" xmlns:xlink="http://www.w3.org/1999/xlink" version="1.1"><rect x="0" y="0" width="1920" height="1080" fill="#001220"></rect><defs><linearGradient id="grad1_0" x1="43.8%" y1="0%" x2="100%" y2="100%"><stop offset="14.444444444444446%" stop-color="#001220" stop-opacity="1"></stop><stop offset="85.55555555555554%" stop-color="#001220" stop-opacity="1"></stop></linearGradient></defs><defs><linearGradient id="grad2_0" x1="0%" y1="0%" x2="56.3%" y2="100%"><stop offset="14.444444444444446%" stop-color="#001220" stop-opacity="1"></stop><stop offset="85.55555555555554%" stop-color="#001220" stop-opacity="1"></stop></linearGradient></defs><g transform="translate(1920, 0)"><path d="M0 648C-64.4 594.1 -128.7 540.2 -214.7 518.3C-300.6 496.4 -408.1 506.6 -458.2 458.2C-508.3 409.8 -500.9 302.7 -522.9 216.6C-545 130.5 -596.5 65.2 -648 0L0 0Z" fill="#FBAE3C"></path></g><g transform="translate(0, 1080)"><path d="M0 -648C85.6 -639.8 171.1 -631.7 248 -598.7C324.9 -565.7 393.1 -507.9 442.6 -442.6C492.2 -377.4 523.2 -304.6 554.3 -229.6C585.4 -154.6 616.7 -77.3 648 0L0 0Z" fill="#FBAE3C"></path></g></svg>