<svg id="visual" viewBox="0 0 900 600" width="900" height="600" xmlns="http://www.w3.org/2000/svg" xmlns:xlink="http://www.w3.org/1999/xlink" version="1.1"><path d="M0 25L15 24C30 23 60 21 90 22C120 23 150 27 180 27C210 27 240 23 270 20C300 17 330 15 360 16C390 17 420 21 450 23C480 25 510 25 540 24C570 23 600 21 630 21C660 21 690 23 720 24C750 25 780 25 810 24C840 23 870 21 885 20L900 19L900 0L885 0C870 0 840 0 810 0C780 0 750 0 720 0C690 0 660 0 630 0C600 0 570 0 540 0C510 0 480 0 450 0C420 0 390 0 360 0C330 0 300 0 270 0C240 0 210 0 180 0C150 0 120 0 90 0C60 0 30 0 15 0L0 0Z" fill="#ffffff"></path><path d="M0 55L15 56C30 57 60 59 90 60C120 61 150 61 180 62C210 63 240 65 270 66C300 67 330 67 360 67C390 67 420 67 450 65C480 63 510 59 540 60C570 61 600 67 630 68C660 69 690 65 720 61C750 57 780 53 810 53C840 53 870 57 885 59L900 61L900 17L885 18C870 19 840 21 810 22C780 23 750 23 720 22C690 21 660 19 630 19C600 19 570 21 540 22C510 23 480 23 450 21C420 19 390 15 360 14C330 13 300 15 270 18C240 21 210 25 180 25C150 25 120 21 90 20C60 19 30 21 15 22L0 23Z" fill="#f9f9f9"></path><path d="M0 85L15 86C30 87 60 89 90 90C120 91 150 91 180 92C210 93 240 95 270 95C300 95 330 93 360 90C390 87 420 83 450 82C480 81 510 83 540 86C570 89 600 93 630 93C660 93 690 89 720 84C750 79 780 73 810 74C840 75 870 83 885 87L900 91L900 59L885 57C870 55 840 51 810 51C780 51 750 55 720 59C690 63 660 67 630 66C600 65 570 59 540 58C510 57 480 61 450 63C420 65 390 65 360 65C330 65 300 65 270 64C240 63 210 61 180 60C150 59 120 59 90 58C60 57 30 55 15 54L0 53Z" fill="#f3f3f3"></path><path d="M0 139L15 137C30 135 60 131 90 133C120 135 150 143 180 148C210 153 240 155 270 152C300 149 330 141 360 137C390 133 420 133 450 133C480 133 510 133 540 134C570 135 600 137 630 145C660 153 690 167 720 163C750 159 780 137 810 131C840 125 870 135 885 140L900 145L900 89L885 85C870 81 840 73 810 72C780 71 750 77 720 82C690 87 660 91 630 91C600 91 570 87 540 84C510 81 480 79 450 80C420 81 390 85 360 88C330 91 300 93 270 93C240 93 210 91 180 90C150 89 120 89 90 88C60 87 30 85 15 84L0 83Z" fill="#ededed"></path><path d="M0 253L15 246C30 239 60 225 90 224C120 223 150 235 180 249C210 263 240 279 270 279C300 279 330 263 360 252C390 241 420 235 450 231C480 227 510 225 540 224C570 223 600 223 630 233C660 243 690 263 720 261C750 259 780 235 810 228C840 221 870 231 885 236L900 241L900 143L885 138C870 133 840 123 810 129C780 135 750 157 720 161C690 165 660 151 630 143C600 135 570 133 540 132C510 131 480 131 450 131C420 131 390 131 360 135C330 139 300 147 270 150C240 153 210 151 180 146C150 141 120 133 90 131C60 129 30 133 15 135L0 137Z" fill="#e7e7e7"></path><path d="M0 277L15 276C30 275 60 273 90 277C120 281 150 291 180 302C210 313 240 325 270 325C300 325 330 313 360 302C390 291 420 281 450 275C480 269 510 267 540 267C570 267 600 269 630 281C660 293 690 315 720 314C750 313 780 289 810 280C840 271 870 277 885 280L900 283L900 239L885 234C870 229 840 219 810 226C780 233 750 257 720 259C690 261 660 241 630 231C600 221 570 221 540 222C510 223 480 225 450 229C420 233 390 239 360 250C330 261 300 277 270 277C240 277 210 261 180 247C150 233 120 221 90 222C60 223 30 237 15 244L0 251Z" fill="#e5e5e5"></path><path d="M0 295L15 295C30 295 60 295 90 299C120 303 150 311 180 324C210 337 240 355 270 356C300 357 330 341 360 327C390 313 420 301 450 294C480 287 510 285 540 288C570 291 600 299 630 311C660 323 690 339 720 336C750 333 780 311 810 305C840 299 870 309 885 314L900 319L900 281L885 278C870 275 840 269 810 278C780 287 750 311 720 312C690 313 660 291 630 279C600 267 570 265 540 265C510 265 480 267 450 273C420 279 390 289 360 300C330 311 300 323 270 323C240 323 210 311 180 300C150 289 120 279 90 275C60 271 30 273 15 274L0 275Z" fill="#e5e5e5"></path><path d="M0 433L15 436C30 439 60 445 90 446C120 447 150 443 180 448C210 453 240 467 270 473C300 479 330 477 360 468C390 459 420 443 450 439C480 435 510 443 540 447C570 451 600 451 630 453C660 455 690 459 720 455C750 451 780 439 810 436C840 433 870 439 885 442L900 445L900 317L885 312C870 307 840 297 810 303C780 309 750 331 720 334C690 337 660 321 630 309C600 297 570 289 540 286C510 283 480 285 450 292C420 299 390 311 360 325C330 339 300 355 270 354C240 353 210 335 180 322C150 309 120 301 90 297C60 293 30 293 15 293L0 293Z" fill="#e7e7e7"></path><path d="M0 475L15 477C30 479 60 483 90 483C120 483 150 479 180 484C210 489 240 503 270 509C300 515 330 513 360 505C390 497 420 483 450 479C480 475 510 481 540 485C570 489 600 491 630 491C660 491 690 489 720 485C750 481 780 475 810 474C840 473 870 477 885 479L900 481L900 443L885 440C870 437 840 431 810 434C780 437 750 449 720 453C690 457 660 453 630 451C600 449 570 449 540 445C510 441 480 433 450 437C420 441 390 457 360 466C330 475 300 477 270 471C240 465 210 451 180 446C150 441 120 445 90 444C60 443 30 437 15 434L0 431Z" fill="#ededed"></path><path d="M0 517L15 517C30 517 60 517 90 515C120 513 150 509 180 512C210 515 240 525 270 530C300 535 330 535 360 530C390 525 420 515 450 514C480 513 510 521 540 523C570 525 600 521 630 519C660 517 690 517 720 514C750 511 780 505 810 506C840 507 870 515 885 519L900 523L900 479L885 477C870 475 840 471 810 472C780 473 750 479 720 483C690 487 660 489 630 489C600 489 570 487 540 483C510 479 480 473 450 477C420 481 390 495 360 503C330 511 300 513 270 507C240 501 210 487 180 482C150 477 120 481 90 481C60 481 30 477 15 475L0 473Z" fill="#f3f3f3"></path><path d="M0 565L15 567C30 569 60 573 90 574C120 575 150 573 180 573C210 573 240 575 270 576C300 577 330 577 360 577C390 577 420 577 450 578C480 579 510 581 540 582C570 583 600 583 630 581C660 579 690 575 720 573C750 571 780 571 810 573C840 575 870 579 885 581L900 583L900 521L885 517C870 513 840 505 810 504C780 503 750 509 720 512C690 515 660 515 630 517C600 519 570 523 540 521C510 519 480 511 450 512C420 513 390 523 360 528C330 533 300 533 270 528C240 523 210 513 180 510C150 507 120 511 90 513C60 515 30 515 15 515L0 515Z" fill="#f9f9f9"></path><path d="M0 601L15 601C30 601 60 601 90 601C120 601 150 601 180 601C210 601 240 601 270 601C300 601 330 601 360 601C390 601 420 601 450 601C480 601 510 601 540 601C570 601 600 601 630 601C660 601 690 601 720 601C750 601 780 601 810 601C840 601 870 601 885 601L900 601L900 581L885 579C870 577 840 573 810 571C780 569 750 569 720 571C690 573 660 577 630 579C600 581 570 581 540 580C510 579 480 577 450 576C420 575 390 575 360 575C330 575 300 575 270 574C240 573 210 571 180 571C150 571 120 573 90 572C60 571 30 567 15 565L0 563Z" fill="#ffffff"></path></svg>