<svg id="visual" viewBox="0 0 900 600" width="900" height="600" xmlns="http://www.w3.org/2000/svg" xmlns:xlink="http://www.w3.org/1999/xlink" version="1.1"><path d="M0 121L21.5 110C43 99 86 77 128.8 78C171.7 79 214.3 103 257.2 105C300 107 343 87 385.8 84C428.7 81 471.3 95 514.2 101C557 107 600 105 642.8 107C685.7 109 728.3 115 771.2 106C814 97 857 73 878.5 61L900 49L900 0L878.5 0C857 0 814 0 771.2 0C728.3 0 685.7 0 642.8 0C600 0 557 0 514.2 0C471.3 0 428.7 0 385.8 0C343 0 300 0 257.2 0C214.3 0 171.7 0 128.8 0C86 0 43 0 21.5 0L0 0Z" fill="#2a2a2a"></path><path d="M0 163L21.5 158C43 153 86 143 128.8 143C171.7 143 214.3 153 257.2 160C300 167 343 171 385.8 176C428.7 181 471.3 187 514.2 185C557 183 600 173 642.8 179C685.7 185 728.3 207 771.2 202C814 197 857 165 878.5 149L900 133L900 47L878.5 59C857 71 814 95 771.2 104C728.3 113 685.7 107 642.8 105C600 103 557 105 514.2 99C471.3 93 428.7 79 385.8 82C343 85 300 105 257.2 103C214.3 101 171.7 77 128.8 76C86 75 43 97 21.5 108L0 119Z" fill="#252525"></path><path d="M0 253L21.5 267C43 281 86 309 128.8 307C171.7 305 214.3 273 257.2 281C300 289 343 337 385.8 355C428.7 373 471.3 361 514.2 349C557 337 600 325 642.8 319C685.7 313 728.3 313 771.2 315C814 317 857 321 878.5 323L900 325L900 131L878.5 147C857 163 814 195 771.2 200C728.3 205 685.7 183 642.8 177C600 171 557 181 514.2 183C471.3 185 428.7 179 385.8 174C343 169 300 165 257.2 158C214.3 151 171.7 141 128.8 141C86 141 43 151 21.5 156L0 161Z" fill="#212121"></path><path d="M0 403L21.5 405C43 407 86 411 128.8 414C171.7 417 214.3 419 257.2 432C300 445 343 469 385.8 476C428.7 483 471.3 473 514.2 477C557 481 600 499 642.8 504C685.7 509 728.3 501 771.2 489C814 477 857 461 878.5 453L900 445L900 323L878.5 321C857 319 814 315 771.2 313C728.3 311 685.7 311 642.8 317C600 323 557 335 514.2 347C471.3 359 428.7 371 385.8 353C343 335 300 287 257.2 279C214.3 271 171.7 303 128.8 305C86 307 43 279 21.5 265L0 251Z" fill="#1c1c1c"></path><path d="M0 487L21.5 485C43 483 86 479 128.8 480C171.7 481 214.3 487 257.2 495C300 503 343 513 385.8 514C428.7 515 471.3 507 514.2 512C557 517 600 535 642.8 542C685.7 549 728.3 545 771.2 537C814 529 857 517 878.5 511L900 505L900 443L878.5 451C857 459 814 475 771.2 487C728.3 499 685.7 507 642.8 502C600 497 557 479 514.2 475C471.3 471 428.7 481 385.8 474C343 467 300 443 257.2 430C214.3 417 171.7 415 128.8 412C86 409 43 405 21.5 403L0 401Z" fill="#181818"></path><path d="M0 553L21.5 551C43 549 86 545 128.8 546C171.7 547 214.3 553 257.2 554C300 555 343 551 385.8 547C428.7 543 471.3 539 514.2 544C557 549 600 563 642.8 570C685.7 577 728.3 577 771.2 574C814 571 857 565 878.5 562L900 559L900 503L878.5 509C857 515 814 527 771.2 535C728.3 543 685.7 547 642.8 540C600 533 557 515 514.2 510C471.3 505 428.7 513 385.8 512C343 511 300 501 257.2 493C214.3 485 171.7 479 128.8 478C86 477 43 481 21.5 483L0 485Z" fill="#131313"></path><path d="M0 601L21.5 601C43 601 86 601 128.8 601C171.7 601 214.3 601 257.2 601C300 601 343 601 385.8 601C428.7 601 471.3 601 514.2 601C557 601 600 601 642.8 601C685.7 601 728.3 601 771.2 601C814 601 857 601 878.5 601L900 601L900 557L878.5 560C857 563 814 569 771.2 572C728.3 575 685.7 575 642.8 568C600 561 557 547 514.2 542C471.3 537 428.7 541 385.8 545C343 549 300 553 257.2 552C214.3 551 171.7 545 128.8 544C86 543 43 547 21.5 549L0 551Z" fill="#0e0e0e"></path></svg>