<svg id="visual" viewBox="0 0 900 600" width="900" height="600" xmlns="http://www.w3.org/2000/svg" xmlns:xlink="http://www.w3.org/1999/xlink" version="1.1"><rect x="0" y="0" width="900" height="600" fill="#ffffff"></rect><path d="M0 376L21.5 383.8C43 391.7 86 407.3 128.8 417.5C171.7 427.7 214.3 432.3 257.2 433.3C300 434.3 343 431.7 385.8 421.7C428.7 411.7 471.3 394.3 514.2 382C557 369.7 600 362.3 642.8 358.8C685.7 355.3 728.3 355.7 771.2 357C814 358.3 857 360.7 878.5 361.8L900 363L900 601L878.5 601C857 601 814 601 771.2 601C728.3 601 685.7 601 642.8 601C600 601 557 601 514.2 601C471.3 601 428.7 601 385.8 601C343 601 300 601 257.2 601C214.3 601 171.7 601 128.8 601C86 601 43 601 21.5 601L0 601Z" fill="#5166ff"></path><path d="M0 401L21.5 399.8C43 398.7 86 396.3 128.8 408C171.7 419.7 214.3 445.3 257.2 450.7C300 456 343 441 385.8 437.7C428.7 434.3 471.3 442.7 514.2 444.3C557 446 600 441 642.8 432C685.7 423 728.3 410 771.2 405.5C814 401 857 405 878.5 407L900 409L900 601L878.5 601C857 601 814 601 771.2 601C728.3 601 685.7 601 642.8 601C600 601 557 601 514.2 601C471.3 601 428.7 601 385.8 601C343 601 300 601 257.2 601C214.3 601 171.7 601 128.8 601C86 601 43 601 21.5 601L0 601Z" fill="#4251e4"></path><path d="M0 448L21.5 452C43 456 86 464 128.8 473.8C171.7 483.7 214.3 495.3 257.2 490.2C300 485 343 463 385.8 457.5C428.7 452 471.3 463 514.2 467.7C557 472.3 600 470.7 642.8 464.7C685.7 458.7 728.3 448.3 771.2 448.3C814 448.3 857 458.7 878.5 463.8L900 469L900 601L878.5 601C857 601 814 601 771.2 601C728.3 601 685.7 601 642.8 601C600 601 557 601 514.2 601C471.3 601 428.7 601 385.8 601C343 601 300 601 257.2 601C214.3 601 171.7 601 128.8 601C86 601 43 601 21.5 601L0 601Z" fill="#313cca"></path><path d="M0 503L21.5 499.5C43 496 86 489 128.8 486.7C171.7 484.3 214.3 486.7 257.2 490C300 493.3 343 497.7 385.8 500.7C428.7 503.7 471.3 505.3 514.2 509C557 512.7 600 518.3 642.8 517.5C685.7 516.7 728.3 509.3 771.2 503C814 496.7 857 491.3 878.5 488.7L900 486L900 601L878.5 601C857 601 814 601 771.2 601C728.3 601 685.7 601 642.8 601C600 601 557 601 514.2 601C471.3 601 428.7 601 385.8 601C343 601 300 601 257.2 601C214.3 601 171.7 601 128.8 601C86 601 43 601 21.5 601L0 601Z" fill="#1e28b0"></path><path d="M0 557L21.5 559.2C43 561.3 86 565.7 128.8 565.8C171.7 566 214.3 562 257.2 560.7C300 559.3 343 560.7 385.8 556.8C428.7 553 471.3 544 514.2 544.5C557 545 600 555 642.8 556.5C685.7 558 728.3 551 771.2 552.3C814 553.7 857 563.3 878.5 568.2L900 573L900 601L878.5 601C857 601 814 601 771.2 601C728.3 601 685.7 601 642.8 601C600 601 557 601 514.2 601C471.3 601 428.7 601 385.8 601C343 601 300 601 257.2 601C214.3 601 171.7 601 128.8 601C86 601 43 601 21.5 601L0 601Z" fill="#001297"></path></svg>